HIERARCHY
ROOT joint_Root
{
	OFFSET 0.0 0.0 0.0
	CHANNELS 6 Xposition Yposition Zposition Zrotation Xrotation Yrotation 
	JOINT Hips
	{
		OFFSET -0.726466 93.3139 -2.00062
		CHANNELS 6 Xposition Yposition Zposition Zrotation Xrotation Yrotation 
		JOINT Spine
		{
			OFFSET 15.7357 0.0 0.0
			CHANNELS 6 Xposition Yposition Zposition Zrotation Xrotation Yrotation 
			JOINT Chest
			{
				OFFSET 8.98455 -0.406207 0.0
				CHANNELS 6 Xposition Yposition Zposition Zrotation Xrotation Yrotation 
				JOINT Neck
				{
					OFFSET 16.3773 0.0 0.0
					CHANNELS 6 Xposition Yposition Zposition Zrotation Xrotation Yrotation 
					JOINT Head
					{
						OFFSET 6.45672 0.0 0.0
						CHANNELS 6 Xposition Yposition Zposition Zrotation Xrotation Yrotation 
						End Site
						{
							OFFSET 0.0 0.0 0.0
						}
					}
				}
				JOINT Shoulder_L
				{
					OFFSET 12.9942 -0.242716 4.98039
					CHANNELS 6 Xposition Yposition Zposition Zrotation Xrotation Yrotation 
					JOINT UpperArm_L
					{
						OFFSET 5.34809 0.0 0.0
						CHANNELS 6 Xposition Yposition Zposition Zrotation Xrotation Yrotation 
						JOINT LowerArm_L
						{
							OFFSET 24.3286 1.87007e-05 0.0
							CHANNELS 6 Xposition Yposition Zposition Zrotation Xrotation Yrotation 
							JOINT Hand_L
							{
								OFFSET 22.2916 0.0 0.0
								CHANNELS 6 Xposition Yposition Zposition Zrotation Xrotation Yrotation 
								End Site
								{
									OFFSET 0.0 0.0 0.0
								}
							}
						}
					}
				}
				JOINT Shoulder_R
				{
					OFFSET 12.9945 -0.242716 -4.98039
					CHANNELS 6 Xposition Yposition Zposition Zrotation Xrotation Yrotation 
					JOINT UpperArm_R
					{
						OFFSET -5.34813 0.0 0.0
						CHANNELS 6 Xposition Yposition Zposition Zrotation Xrotation Yrotation 
						JOINT LowerArm_R
						{
							OFFSET -24.3289 0.000322201 0.0
							CHANNELS 6 Xposition Yposition Zposition Zrotation Xrotation Yrotation 
							JOINT Hand_R
							{
								OFFSET -22.2915 -0.000108084 0.0
								CHANNELS 6 Xposition Yposition Zposition Zrotation Xrotation Yrotation 
								End Site
								{
									OFFSET 0.0 0.0 0.0
								}
							}
						}
					}
				}
			}
		}
		JOINT UpperLeg_L
		{
			OFFSET -2.19248 -6.46944 0.0
			CHANNELS 6 Xposition Yposition Zposition Zrotation Xrotation Yrotation 
			JOINT LowerLeg_L
			{
				OFFSET 39.0811 0.0 -1.23785e-05
				CHANNELS 6 Xposition Yposition Zposition Zrotation Xrotation Yrotation 
				JOINT Foot_L
				{
					OFFSET 40.9854 0.0 -1.26872e-05
					CHANNELS 6 Xposition Yposition Zposition Zrotation Xrotation Yrotation 
					JOINT Toes_L
					{
						OFFSET 11.7543 0.0 0.0
						CHANNELS 6 Xposition Yposition Zposition Zrotation Xrotation Yrotation 
						End Site
						{
							OFFSET 0.0 0.0 0.0
						}
					}
				}
			}
		}
		JOINT UpperLeg_R
		{
			OFFSET -2.19251 6.46944 0.0
			CHANNELS 6 Xposition Yposition Zposition Zrotation Xrotation Yrotation 
			JOINT LowerLeg_R
			{
				OFFSET -39.0811 -0.00228153 -0.0401928
				CHANNELS 6 Xposition Yposition Zposition Zrotation Xrotation Yrotation 
				JOINT Foot_R
				{
					OFFSET -40.9854 0.0 0.0
					CHANNELS 6 Xposition Yposition Zposition Zrotation Xrotation Yrotation 
					JOINT Toes_R
					{
						OFFSET -11.7543 0.0 0.0
						CHANNELS 6 Xposition Yposition Zposition Zrotation Xrotation Yrotation 
						End Site
						{
							OFFSET 0.0 0.0 0.0
						}
					}
				}
			}
		}
	}
}
MOTION
Frames:	4
Frame Time:	0.0333333
0.000000 0.000000 0.000000 0.000000 0.000000 -0.000000 142.417000 88.578800 -131.160000 83.735800 11.055400 0.190657 15.735700 0.000005 -0.000001 62.829400 83.216600 -60.204000 8.984550 -0.406207 -0.000000 4.474440 -6.260190 5.493800 16.377300 -0.000001 -0.000001 1.416020 -6.025960 -0.429669 6.456720 -0.000001 -0.000000 0.296560 -5.885420 0.015022 12.994200 -0.242716 4.980390 -89.501100 -1.703400 -73.671500 5.348090 -0.000007 -0.000001 -52.619100 34.402100 -45.651900 24.328600 0.000019 0.000005 -0.749622 -0.752429 -44.897600 22.291600 -0.000001 0.000005 13.802000 5.559530 -9.163740 12.994500 -0.242716 -4.980390 88.131500 5.083830 -69.788900 -5.348130 -0.000001 -0.000004 -68.833800 16.571600 -3.021800 -24.328900 0.000322 -0.000009 1.432830 14.246600 -5.807810 -22.291500 -0.000108 -0.000004 11.834000 5.297430 0.143912 -2.192480 -6.469440 -0.000000 -169.679000 -2.311650 9.867380 39.081100 -0.000007 -0.000012 -0.001978 0.003549 29.134400 40.985400 -0.000006 -0.000013 6.022690 14.016800 -70.891200 11.754300 -0.000000 0.000003 -0.091397 -0.422705 -34.179200 -2.192510 6.469440 -0.000001 -168.022000 12.755800 148.937000 -39.081100 -0.002282 -0.040193 0.020315 -0.039156 23.468700 -40.985400 0.000008 0.000006 7.821370 -3.195870 -46.116500 -11.754300 -0.000006 -0.000006 -0.025345 -0.195276 -24.563000
0.000000 0.000000 0.000000 0.000000 0.000000 -0.000000 142.299000 88.548700 -126.085000 83.012600 11.370900 1.850490 15.735700 0.000005 -0.000001 63.387400 83.061000 -60.299400 8.984550 -0.406207 -0.000000 4.842170 -6.283810 6.439930 16.377300 -0.000001 -0.000001 1.157190 -6.392330 -0.499674 6.456720 -0.000001 -0.000000 0.380390 -6.351100 -0.420936 12.994200 -0.242716 4.980390 -89.586500 -1.420150 -73.764400 5.348090 -0.000007 -0.000001 -55.886300 34.175500 -41.665100 24.328600 0.000019 0.000005 -0.950208 -0.965673 -44.544400 22.291600 -0.000001 0.000005 13.979000 5.562910 -9.330920 12.994500 -0.242716 -4.980390 88.102500 5.184520 -69.865800 -5.348130 -0.000001 -0.000004 -68.723900 16.547900 -3.275860 -24.328900 0.000322 -0.000009 1.422990 13.281500 -6.175840 -22.291500 -0.000108 -0.000004 11.654600 5.307570 -0.141736 -2.192480 -6.469440 -0.000000 -167.867000 -2.102130 9.707730 39.081100 -0.000007 -0.000012 0.013098 -0.018328 35.549500 40.985400 -0.000006 -0.000013 4.515090 15.144100 -62.790000 11.754300 -0.000000 0.000003 -0.191617 -0.631007 -43.561600 -2.192510 6.469440 -0.000001 -168.840000 8.210330 150.588000 -39.081100 -0.002282 -0.040193 0.044995 -0.072424 29.928100 -40.985400 0.000008 0.000006 9.081580 -8.133080 -48.983300 -11.754300 -0.000006 -0.000006 -0.017519 -0.153140 -22.825500
0.000000 0.000000 0.000000 0.000000 0.000000 -0.000000 142.277000 88.742500 -121.275000 82.762900 11.250100 4.194390 15.735700 0.000005 -0.000001 65.923500 82.602900 -62.627000 8.984550 -0.406207 -0.000000 5.950860 -6.071990 6.906630 16.377300 -0.000001 -0.000001 0.884222 -6.745480 -0.357002 6.456720 -0.000001 -0.000000 0.196291 -6.935990 -0.422389 12.994200 -0.242716 4.980390 -89.573500 -1.471500 -73.832500 5.348090 -0.000007 -0.000001 -59.411100 34.106900 -37.442100 24.328600 0.000019 0.000005 -1.234770 -1.315670 -43.199900 22.291600 -0.000001 0.000005 14.004400 5.564390 -9.404900 12.994500 -0.242716 -4.980390 88.147700 5.135490 -70.135100 -5.348130 -0.000001 -0.000004 -68.937000 17.641000 -4.655930 -24.328900 0.000322 -0.000009 1.398630 12.526100 -6.427790 -22.291500 -0.000108 -0.000004 10.741600 5.318030 -0.438870 -2.192480 -6.469440 -0.000000 -167.372000 -1.140520 7.377250 39.081100 -0.000007 -0.000012 0.032017 -0.031834 45.161400 40.985400 -0.000006 -0.000013 2.302940 13.971800 -51.873100 11.754300 -0.000000 0.000003 -0.153998 -0.562584 -40.395400 -2.192510 6.469440 -0.000001 -168.674000 8.507900 154.173000 -39.081100 -0.002282 -0.040193 0.069231 -0.097416 34.092900 -40.985400 0.000008 0.000006 9.393300 -8.691620 -53.691300 -11.754300 -0.000006 -0.000006 -0.013889 -0.130702 -21.904100
0.000000 0.000000 0.000000 0.000000 0.000000 -0.000000 142.152000 89.038100 -117.236000 82.960900 11.275600 5.299430 15.735700 0.000005 -0.000001 68.495600 82.459900 -65.238000 8.984550 -0.406207 -0.000000 6.454270 -5.548900 6.825350 16.377300 -0.000001 -0.000001 0.654420 -7.529720 -0.055274 6.456720 -0.000001 -0.000000 0.031670 -7.962710 0.217701 12.994200 -0.242716 4.980390 -89.540800 -1.609320 -74.070400 5.348090 -0.000007 -0.000001 -61.444300 34.836400 -34.697400 24.328600 0.000019 0.000005 -1.918050 -2.281930 -40.080300 22.291600 -0.000001 0.000005 13.570400 5.564180 -9.393010 12.994500 -0.242716 -4.980390 88.065600 5.378080 -70.183200 -5.348130 -0.000001 -0.000004 -68.979400 19.502000 -6.903810 -24.328900 0.000322 -0.000009 1.480160 12.068300 -7.050010 -22.291500 -0.000108 -0.000004 9.761190 5.317650 -0.428827 -2.192480 -6.469440 -0.000000 -167.781000 0.529003 1.515960 39.081100 -0.000007 -0.000012 0.052614 -0.036071 55.563000 40.985400 -0.000006 -0.000013 -3.345690 9.500740 -39.305000 11.754300 -0.000000 0.000003 -0.018646 -0.159682 -23.098400 -2.192510 6.469440 -0.000001 -168.644000 10.239000 157.578000 -39.081100 -0.002282 -0.040193 0.086066 -0.116137 35.479200 -40.985400 0.000008 0.000006 9.736870 -7.927810 -57.576500 -11.754300 -0.000006 -0.000006 -0.013276 -0.126675 -21.738900
